<mxfile host="app.diagrams.net" modified="2024-05-09T08:50:50.034Z" agent="Mozilla/5.0 (X11; Linux x86_64) AppleWebKit/537.36 (KHTML, like Gecko) Chrome/114.0.0.0 Safari/537.36" etag="5Ig7XjsgffjyeqLO1Lbo" version="24.3.1" type="google">
  <diagram name="Página-1" id="T7qz2SM-T0mE4yQ6ZFUZ">
    <mxGraphModel grid="1" page="1" gridSize="10" guides="1" tooltips="1" connect="1" arrows="1" fold="1" pageScale="1" pageWidth="827" pageHeight="1169" math="0" shadow="0">
      <root>
        <mxCell id="0" />
        <mxCell id="1" parent="0" />
        <mxCell id="56hzuU_RunESpDd3fPq_-1" value="Cliente" style="shape=umlActor;verticalLabelPosition=bottom;verticalAlign=top;html=1;outlineConnect=0;" vertex="1" parent="1">
          <mxGeometry x="50" y="120" width="30" height="60" as="geometry" />
        </mxCell>
        <mxCell id="fWMUQfqP1jKiggUDgoOF-2" value="REGISTRO" style="ellipse;whiteSpace=wrap;html=1;" vertex="1" parent="1">
          <mxGeometry x="190" y="115" width="140" height="70" as="geometry" />
        </mxCell>
        <mxCell id="fWMUQfqP1jKiggUDgoOF-3" value="EXPLORACIÓN DE FUNCIONES" style="ellipse;whiteSpace=wrap;html=1;" vertex="1" parent="1">
          <mxGeometry x="190" y="240" width="140" height="70" as="geometry" />
        </mxCell>
        <mxCell id="fWMUQfqP1jKiggUDgoOF-4" value="Extends" style="endArrow=block;endSize=16;endFill=0;html=1;rounded=0;entryX=1;entryY=0.5;entryDx=0;entryDy=0;exitX=0;exitY=0.5;exitDx=0;exitDy=0;" edge="1" parent="1" source="fWMUQfqP1jKiggUDgoOF-5" target="fWMUQfqP1jKiggUDgoOF-3">
          <mxGeometry width="160" relative="1" as="geometry">
            <mxPoint x="280" y="430" as="sourcePoint" />
            <mxPoint x="440" y="430" as="targetPoint" />
          </mxGeometry>
        </mxCell>
        <mxCell id="fWMUQfqP1jKiggUDgoOF-5" value="CONSULTAR ESPECTÁCULOS" style="ellipse;whiteSpace=wrap;html=1;" vertex="1" parent="1">
          <mxGeometry x="500" y="240" width="140" height="70" as="geometry" />
        </mxCell>
        <mxCell id="fWMUQfqP1jKiggUDgoOF-6" value="GESTIÓN USUARIO" style="ellipse;whiteSpace=wrap;html=1;" vertex="1" parent="1">
          <mxGeometry x="500" y="370" width="140" height="70" as="geometry" />
        </mxCell>
        <mxCell id="fWMUQfqP1jKiggUDgoOF-7" value="Extends" style="endArrow=block;endSize=16;endFill=0;html=1;rounded=0;entryX=1;entryY=0.5;entryDx=0;entryDy=0;exitX=0;exitY=0.5;exitDx=0;exitDy=0;" edge="1" parent="1" source="fWMUQfqP1jKiggUDgoOF-6" target="fWMUQfqP1jKiggUDgoOF-3">
          <mxGeometry width="160" relative="1" as="geometry">
            <mxPoint x="510" y="285" as="sourcePoint" />
            <mxPoint x="340" y="285" as="targetPoint" />
          </mxGeometry>
        </mxCell>
        <mxCell id="fWMUQfqP1jKiggUDgoOF-8" value="INTRODUCIR CORREO" style="ellipse;whiteSpace=wrap;html=1;" vertex="1" parent="1">
          <mxGeometry x="1490" y="170" width="140" height="70" as="geometry" />
        </mxCell>
        <mxCell id="fWMUQfqP1jKiggUDgoOF-9" value="MERCH Y CONCESIONES" style="ellipse;whiteSpace=wrap;html=1;" vertex="1" parent="1">
          <mxGeometry x="1040" y="280" width="140" height="70" as="geometry" />
        </mxCell>
        <mxCell id="fWMUQfqP1jKiggUDgoOF-10" value="PAGAR" style="ellipse;whiteSpace=wrap;html=1;" vertex="1" parent="1">
          <mxGeometry x="1270" y="170" width="140" height="70" as="geometry" />
        </mxCell>
        <mxCell id="fWMUQfqP1jKiggUDgoOF-11" value="GRUPOS GRANDES" style="ellipse;whiteSpace=wrap;html=1;" vertex="1" parent="1">
          <mxGeometry x="1040" y="170" width="140" height="70" as="geometry" />
        </mxCell>
        <mxCell id="fWMUQfqP1jKiggUDgoOF-12" value="SELECCIÓN DE ASIENTOS" style="ellipse;whiteSpace=wrap;html=1;" vertex="1" parent="1">
          <mxGeometry x="1040" y="80" width="140" height="70" as="geometry" />
        </mxCell>
        <mxCell id="fWMUQfqP1jKiggUDgoOF-13" value="COMPRA DE ENTRADAS" style="ellipse;whiteSpace=wrap;html=1;" vertex="1" parent="1">
          <mxGeometry x="760" y="170" width="140" height="70" as="geometry" />
        </mxCell>
        <mxCell id="fWMUQfqP1jKiggUDgoOF-14" value="LOG IN" style="ellipse;whiteSpace=wrap;html=1;" vertex="1" parent="1">
          <mxGeometry x="1740" y="370" width="140" height="70" as="geometry" />
        </mxCell>
        <mxCell id="fWMUQfqP1jKiggUDgoOF-15" value="Extends" style="endArrow=block;endSize=16;endFill=0;html=1;rounded=0;entryX=1;entryY=0;entryDx=0;entryDy=0;exitX=0;exitY=0.5;exitDx=0;exitDy=0;" edge="1" parent="1" source="fWMUQfqP1jKiggUDgoOF-13" target="fWMUQfqP1jKiggUDgoOF-5">
          <mxGeometry width="160" relative="1" as="geometry">
            <mxPoint x="510" y="285" as="sourcePoint" />
            <mxPoint x="340" y="285" as="targetPoint" />
          </mxGeometry>
        </mxCell>
        <mxCell id="fWMUQfqP1jKiggUDgoOF-16" value="Extends" style="endArrow=block;endSize=16;endFill=0;html=1;rounded=0;exitX=0;exitY=0.5;exitDx=0;exitDy=0;" edge="1" parent="1" source="fWMUQfqP1jKiggUDgoOF-11">
          <mxGeometry width="160" relative="1" as="geometry">
            <mxPoint x="520" y="295" as="sourcePoint" />
            <mxPoint x="900" y="205" as="targetPoint" />
          </mxGeometry>
        </mxCell>
        <mxCell id="fWMUQfqP1jKiggUDgoOF-17" value="Extends" style="endArrow=block;endSize=16;endFill=0;html=1;rounded=0;entryX=1;entryY=1;entryDx=0;entryDy=0;exitX=0;exitY=0.5;exitDx=0;exitDy=0;" edge="1" parent="1" source="fWMUQfqP1jKiggUDgoOF-9" target="fWMUQfqP1jKiggUDgoOF-13">
          <mxGeometry width="160" relative="1" as="geometry">
            <mxPoint x="530" y="305" as="sourcePoint" />
            <mxPoint x="360" y="305" as="targetPoint" />
          </mxGeometry>
        </mxCell>
        <mxCell id="fWMUQfqP1jKiggUDgoOF-18" value="Use" style="endArrow=open;endSize=12;dashed=1;html=1;rounded=0;exitX=1;exitY=0;exitDx=0;exitDy=0;entryX=0;entryY=0.5;entryDx=0;entryDy=0;" edge="1" parent="1" source="fWMUQfqP1jKiggUDgoOF-13" target="fWMUQfqP1jKiggUDgoOF-12">
          <mxGeometry width="160" relative="1" as="geometry">
            <mxPoint x="340" y="160" as="sourcePoint" />
            <mxPoint x="520" y="160" as="targetPoint" />
            <mxPoint as="offset" />
          </mxGeometry>
        </mxCell>
        <mxCell id="fWMUQfqP1jKiggUDgoOF-19" value="Use" style="endArrow=open;endSize=12;dashed=1;html=1;rounded=0;exitX=1;exitY=0.5;exitDx=0;exitDy=0;entryX=0.5;entryY=0;entryDx=0;entryDy=0;" edge="1" parent="1" source="fWMUQfqP1jKiggUDgoOF-12" target="fWMUQfqP1jKiggUDgoOF-10">
          <mxGeometry width="160" relative="1" as="geometry">
            <mxPoint x="900" y="215" as="sourcePoint" />
            <mxPoint x="1030" y="125" as="targetPoint" />
            <mxPoint as="offset" />
          </mxGeometry>
        </mxCell>
        <mxCell id="fWMUQfqP1jKiggUDgoOF-20" value="Use" style="endArrow=open;endSize=12;dashed=1;html=1;rounded=0;entryX=0;entryY=0.5;entryDx=0;entryDy=0;exitX=1;exitY=0.5;exitDx=0;exitDy=0;" edge="1" parent="1" source="fWMUQfqP1jKiggUDgoOF-10" target="fWMUQfqP1jKiggUDgoOF-8">
          <mxGeometry width="160" relative="1" as="geometry">
            <mxPoint x="1430" y="110" as="sourcePoint" />
            <mxPoint x="1280" y="125" as="targetPoint" />
            <mxPoint as="offset" />
          </mxGeometry>
        </mxCell>
        <mxCell id="fWMUQfqP1jKiggUDgoOF-21" value="Use" style="endArrow=open;endSize=12;dashed=1;html=1;rounded=0;exitX=1;exitY=0.5;exitDx=0;exitDy=0;" edge="1" parent="1" source="fWMUQfqP1jKiggUDgoOF-10" target="fWMUQfqP1jKiggUDgoOF-14">
          <mxGeometry width="160" relative="1" as="geometry">
            <mxPoint x="1180" y="135" as="sourcePoint" />
            <mxPoint x="1290" y="135" as="targetPoint" />
            <mxPoint as="offset" />
          </mxGeometry>
        </mxCell>
        <mxCell id="fWMUQfqP1jKiggUDgoOF-22" value="REALIZAR RESEÑA" style="ellipse;whiteSpace=wrap;html=1;" vertex="1" parent="1">
          <mxGeometry x="760" y="460" width="140" height="70" as="geometry" />
        </mxCell>
        <mxCell id="fWMUQfqP1jKiggUDgoOF-23" value="MOD USUARIO" style="ellipse;whiteSpace=wrap;html=1;" vertex="1" parent="1">
          <mxGeometry x="1040" y="570" width="140" height="70" as="geometry" />
        </mxCell>
        <mxCell id="fWMUQfqP1jKiggUDgoOF-24" value="BAJA DE USUARIO" style="ellipse;whiteSpace=wrap;html=1;" vertex="1" parent="1">
          <mxGeometry x="1040" y="660" width="140" height="70" as="geometry" />
        </mxCell>
        <mxCell id="fWMUQfqP1jKiggUDgoOF-25" value="ADM NOTIFICACIONES" style="ellipse;whiteSpace=wrap;html=1;" vertex="1" parent="1">
          <mxGeometry x="1040" y="480" width="140" height="70" as="geometry" />
        </mxCell>
        <mxCell id="fWMUQfqP1jKiggUDgoOF-26" value="ADM PERFIL USUARIO" style="ellipse;whiteSpace=wrap;html=1;" vertex="1" parent="1">
          <mxGeometry x="760" y="560" width="140" height="70" as="geometry" />
        </mxCell>
        <mxCell id="fWMUQfqP1jKiggUDgoOF-27" value="VER HISTORIAL / TRANSACCIONES" style="ellipse;whiteSpace=wrap;html=1;" vertex="1" parent="1">
          <mxGeometry x="760" y="370" width="140" height="70" as="geometry" />
        </mxCell>
        <mxCell id="fWMUQfqP1jKiggUDgoOF-28" value="CONSULTA DE CALENDARIO" style="ellipse;whiteSpace=wrap;html=1;" vertex="1" parent="1">
          <mxGeometry x="760" y="270" width="140" height="70" as="geometry" />
        </mxCell>
        <mxCell id="fWMUQfqP1jKiggUDgoOF-29" value="Extends" style="endArrow=block;endSize=16;endFill=0;html=1;rounded=0;entryX=1;entryY=1;entryDx=0;entryDy=0;exitX=0;exitY=0.5;exitDx=0;exitDy=0;" edge="1" parent="1" source="fWMUQfqP1jKiggUDgoOF-28" target="fWMUQfqP1jKiggUDgoOF-5">
          <mxGeometry width="160" relative="1" as="geometry">
            <mxPoint x="760" y="215" as="sourcePoint" />
            <mxPoint x="650" y="285" as="targetPoint" />
          </mxGeometry>
        </mxCell>
        <mxCell id="fWMUQfqP1jKiggUDgoOF-30" value="Extends" style="endArrow=block;endSize=16;endFill=0;html=1;rounded=0;entryX=1;entryY=0.5;entryDx=0;entryDy=0;exitX=0;exitY=0.5;exitDx=0;exitDy=0;" edge="1" parent="1" source="fWMUQfqP1jKiggUDgoOF-27" target="fWMUQfqP1jKiggUDgoOF-6">
          <mxGeometry width="160" relative="1" as="geometry">
            <mxPoint x="760" y="335" as="sourcePoint" />
            <mxPoint x="650" y="285" as="targetPoint" />
          </mxGeometry>
        </mxCell>
        <mxCell id="fWMUQfqP1jKiggUDgoOF-31" value="Extends" style="endArrow=block;endSize=16;endFill=0;html=1;rounded=0;exitX=0;exitY=0.5;exitDx=0;exitDy=0;" edge="1" parent="1" source="fWMUQfqP1jKiggUDgoOF-26" target="fWMUQfqP1jKiggUDgoOF-6">
          <mxGeometry width="160" relative="1" as="geometry">
            <mxPoint x="770" y="345" as="sourcePoint" />
            <mxPoint x="660" y="295" as="targetPoint" />
          </mxGeometry>
        </mxCell>
        <mxCell id="fWMUQfqP1jKiggUDgoOF-32" value="Extends" style="endArrow=block;endSize=16;endFill=0;html=1;rounded=0;entryX=1;entryY=1;entryDx=0;entryDy=0;exitX=0;exitY=0.5;exitDx=0;exitDy=0;" edge="1" parent="1" source="fWMUQfqP1jKiggUDgoOF-22" target="fWMUQfqP1jKiggUDgoOF-6">
          <mxGeometry width="160" relative="1" as="geometry">
            <mxPoint x="780" y="355" as="sourcePoint" />
            <mxPoint x="670" y="305" as="targetPoint" />
          </mxGeometry>
        </mxCell>
        <mxCell id="fWMUQfqP1jKiggUDgoOF-33" value="Extends" style="endArrow=block;endSize=16;endFill=0;html=1;rounded=0;entryX=1;entryY=0;entryDx=0;entryDy=0;exitX=0;exitY=0.5;exitDx=0;exitDy=0;" edge="1" parent="1" source="fWMUQfqP1jKiggUDgoOF-25" target="fWMUQfqP1jKiggUDgoOF-26">
          <mxGeometry width="160" relative="1" as="geometry">
            <mxPoint x="790" y="645" as="sourcePoint" />
            <mxPoint x="650" y="415" as="targetPoint" />
          </mxGeometry>
        </mxCell>
        <mxCell id="fWMUQfqP1jKiggUDgoOF-34" value="Extends" style="endArrow=block;endSize=16;endFill=0;html=1;rounded=0;entryX=1;entryY=0.5;entryDx=0;entryDy=0;exitX=0;exitY=0.5;exitDx=0;exitDy=0;" edge="1" parent="1" source="fWMUQfqP1jKiggUDgoOF-23" target="fWMUQfqP1jKiggUDgoOF-26">
          <mxGeometry width="160" relative="1" as="geometry">
            <mxPoint x="800" y="655" as="sourcePoint" />
            <mxPoint x="660" y="425" as="targetPoint" />
          </mxGeometry>
        </mxCell>
        <mxCell id="fWMUQfqP1jKiggUDgoOF-35" value="Extends" style="endArrow=block;endSize=16;endFill=0;html=1;rounded=0;entryX=1;entryY=1;entryDx=0;entryDy=0;exitX=0;exitY=0.5;exitDx=0;exitDy=0;" edge="1" parent="1" source="fWMUQfqP1jKiggUDgoOF-24" target="fWMUQfqP1jKiggUDgoOF-26">
          <mxGeometry width="160" relative="1" as="geometry">
            <mxPoint x="810" y="665" as="sourcePoint" />
            <mxPoint x="670" y="435" as="targetPoint" />
          </mxGeometry>
        </mxCell>
        <mxCell id="fWMUQfqP1jKiggUDgoOF-38" value="Use" style="endArrow=open;endSize=12;dashed=1;html=1;rounded=0;exitX=1;exitY=0.5;exitDx=0;exitDy=0;entryX=0;entryY=0.5;entryDx=0;entryDy=0;" edge="1" parent="1" source="fWMUQfqP1jKiggUDgoOF-27" target="fWMUQfqP1jKiggUDgoOF-14">
          <mxGeometry width="160" relative="1" as="geometry">
            <mxPoint x="1180" y="245" as="sourcePoint" />
            <mxPoint x="1520" y="450" as="targetPoint" />
            <mxPoint as="offset" />
          </mxGeometry>
        </mxCell>
        <mxCell id="fWMUQfqP1jKiggUDgoOF-39" value="Use" style="endArrow=open;endSize=12;dashed=1;html=1;rounded=0;exitX=1;exitY=0.5;exitDx=0;exitDy=0;" edge="1" parent="1" source="fWMUQfqP1jKiggUDgoOF-25" target="fWMUQfqP1jKiggUDgoOF-14">
          <mxGeometry width="160" relative="1" as="geometry">
            <mxPoint x="901" y="435" as="sourcePoint" />
            <mxPoint x="1530" y="460" as="targetPoint" />
            <mxPoint as="offset" />
          </mxGeometry>
        </mxCell>
        <mxCell id="fWMUQfqP1jKiggUDgoOF-40" value="Use" style="endArrow=open;endSize=12;dashed=1;html=1;rounded=0;exitX=1;exitY=0.5;exitDx=0;exitDy=0;entryX=0.5;entryY=1;entryDx=0;entryDy=0;" edge="1" parent="1" source="fWMUQfqP1jKiggUDgoOF-23" target="fWMUQfqP1jKiggUDgoOF-14">
          <mxGeometry width="160" relative="1" as="geometry">
            <mxPoint x="1170" y="615" as="sourcePoint" />
            <mxPoint x="1540" y="470" as="targetPoint" />
            <mxPoint as="offset" />
          </mxGeometry>
        </mxCell>
        <mxCell id="fWMUQfqP1jKiggUDgoOF-41" value="Use" style="endArrow=open;endSize=12;dashed=1;html=1;rounded=0;exitX=1;exitY=0.5;exitDx=0;exitDy=0;entryX=0.721;entryY=0.986;entryDx=0;entryDy=0;entryPerimeter=0;" edge="1" parent="1" source="fWMUQfqP1jKiggUDgoOF-24" target="fWMUQfqP1jKiggUDgoOF-14">
          <mxGeometry width="160" relative="1" as="geometry">
            <mxPoint x="1160" y="705" as="sourcePoint" />
            <mxPoint x="1550" y="480" as="targetPoint" />
            <mxPoint as="offset" />
          </mxGeometry>
        </mxCell>
        <mxCell id="fWMUQfqP1jKiggUDgoOF-42" value="" style="endArrow=classic;html=1;rounded=0;entryX=0;entryY=0.5;entryDx=0;entryDy=0;" edge="1" parent="1" source="56hzuU_RunESpDd3fPq_-1" target="fWMUQfqP1jKiggUDgoOF-2">
          <mxGeometry width="50" height="50" relative="1" as="geometry">
            <mxPoint x="840" y="490" as="sourcePoint" />
            <mxPoint x="190" y="150" as="targetPoint" />
          </mxGeometry>
        </mxCell>
        <mxCell id="fWMUQfqP1jKiggUDgoOF-43" value="" style="endArrow=classic;html=1;rounded=0;entryX=0;entryY=0.5;entryDx=0;entryDy=0;" edge="1" parent="1" target="fWMUQfqP1jKiggUDgoOF-3">
          <mxGeometry width="50" height="50" relative="1" as="geometry">
            <mxPoint x="80" y="150" as="sourcePoint" />
            <mxPoint x="200" y="160" as="targetPoint" />
          </mxGeometry>
        </mxCell>
        <mxCell id="7atxFKoaZtmq4Zg8RzaN-1" value="BUSCAR" style="ellipse;whiteSpace=wrap;html=1;" vertex="1" parent="1">
          <mxGeometry x="760" y="-110" width="140" height="70" as="geometry" />
        </mxCell>
        <mxCell id="7atxFKoaZtmq4Zg8RzaN-2" value="Use" style="endArrow=open;endSize=12;dashed=1;html=1;rounded=0;exitX=1;exitY=0.5;exitDx=0;exitDy=0;entryX=0;entryY=0.5;entryDx=0;entryDy=0;" edge="1" parent="1" source="fWMUQfqP1jKiggUDgoOF-11" target="fWMUQfqP1jKiggUDgoOF-10">
          <mxGeometry width="160" relative="1" as="geometry">
            <mxPoint x="910" y="215" as="sourcePoint" />
            <mxPoint x="1050" y="125" as="targetPoint" />
            <mxPoint as="offset" />
          </mxGeometry>
        </mxCell>
        <mxCell id="7atxFKoaZtmq4Zg8RzaN-3" value="Use" style="endArrow=open;endSize=12;dashed=1;html=1;rounded=0;exitX=1;exitY=0.5;exitDx=0;exitDy=0;entryX=0.5;entryY=1;entryDx=0;entryDy=0;" edge="1" parent="1" source="fWMUQfqP1jKiggUDgoOF-9" target="fWMUQfqP1jKiggUDgoOF-10">
          <mxGeometry width="160" relative="1" as="geometry">
            <mxPoint x="920" y="225" as="sourcePoint" />
            <mxPoint x="1060" y="135" as="targetPoint" />
            <mxPoint as="offset" />
          </mxGeometry>
        </mxCell>
        <mxCell id="7atxFKoaZtmq4Zg8RzaN-4" value="Extends" style="endArrow=block;endSize=16;endFill=0;html=1;rounded=0;entryX=0.5;entryY=0;entryDx=0;entryDy=0;exitX=0;exitY=0.5;exitDx=0;exitDy=0;" edge="1" parent="1" source="7atxFKoaZtmq4Zg8RzaN-1" target="fWMUQfqP1jKiggUDgoOF-5">
          <mxGeometry width="160" relative="1" as="geometry">
            <mxPoint x="770" y="215" as="sourcePoint" />
            <mxPoint x="629" y="260" as="targetPoint" />
          </mxGeometry>
        </mxCell>
        <mxCell id="7atxFKoaZtmq4Zg8RzaN-6" value="EDAD" style="ellipse;whiteSpace=wrap;html=1;" vertex="1" parent="1">
          <mxGeometry x="1040" y="-200" width="140" height="70" as="geometry" />
        </mxCell>
        <mxCell id="7atxFKoaZtmq4Zg8RzaN-7" value="TIPO" style="ellipse;whiteSpace=wrap;html=1;" vertex="1" parent="1">
          <mxGeometry x="1040" y="-10" width="140" height="70" as="geometry" />
        </mxCell>
        <mxCell id="7atxFKoaZtmq4Zg8RzaN-8" value="FECHA" style="ellipse;whiteSpace=wrap;html=1;" vertex="1" parent="1">
          <mxGeometry x="1040" y="-110" width="140" height="70" as="geometry" />
        </mxCell>
        <mxCell id="7atxFKoaZtmq4Zg8RzaN-10" value="Extends" style="endArrow=block;endSize=16;endFill=0;html=1;rounded=0;entryX=1;entryY=0;entryDx=0;entryDy=0;exitX=0;exitY=0.5;exitDx=0;exitDy=0;" edge="1" parent="1" source="7atxFKoaZtmq4Zg8RzaN-6" target="7atxFKoaZtmq4Zg8RzaN-1">
          <mxGeometry width="160" relative="1" as="geometry">
            <mxPoint x="770" y="-25" as="sourcePoint" />
            <mxPoint x="580" y="250" as="targetPoint" />
          </mxGeometry>
        </mxCell>
        <mxCell id="7atxFKoaZtmq4Zg8RzaN-11" value="Extends" style="endArrow=block;endSize=16;endFill=0;html=1;rounded=0;entryX=1;entryY=0.5;entryDx=0;entryDy=0;exitX=0;exitY=0.5;exitDx=0;exitDy=0;" edge="1" parent="1" source="7atxFKoaZtmq4Zg8RzaN-8" target="7atxFKoaZtmq4Zg8RzaN-1">
          <mxGeometry width="160" relative="1" as="geometry">
            <mxPoint x="780" y="-15" as="sourcePoint" />
            <mxPoint x="590" y="260" as="targetPoint" />
          </mxGeometry>
        </mxCell>
        <mxCell id="7atxFKoaZtmq4Zg8RzaN-12" value="Extends" style="endArrow=block;endSize=16;endFill=0;html=1;rounded=0;entryX=0.5;entryY=1;entryDx=0;entryDy=0;exitX=0;exitY=0.5;exitDx=0;exitDy=0;" edge="1" parent="1" source="7atxFKoaZtmq4Zg8RzaN-7" target="7atxFKoaZtmq4Zg8RzaN-1">
          <mxGeometry width="160" relative="1" as="geometry">
            <mxPoint x="790" y="-5" as="sourcePoint" />
            <mxPoint x="600" y="270" as="targetPoint" />
          </mxGeometry>
        </mxCell>
        <mxCell id="7atxFKoaZtmq4Zg8RzaN-13" value="FAVORITOS" style="ellipse;whiteSpace=wrap;html=1;" vertex="1" parent="1">
          <mxGeometry x="1040" y="-310" width="140" height="70" as="geometry" />
        </mxCell>
        <mxCell id="7atxFKoaZtmq4Zg8RzaN-14" value="Use" style="endArrow=open;endSize=12;dashed=1;html=1;rounded=0;exitX=1;exitY=0.5;exitDx=0;exitDy=0;entryX=1;entryY=0.5;entryDx=0;entryDy=0;" edge="1" parent="1" source="7atxFKoaZtmq4Zg8RzaN-13" target="fWMUQfqP1jKiggUDgoOF-14">
          <mxGeometry width="160" relative="1" as="geometry">
            <mxPoint x="910" y="415" as="sourcePoint" />
            <mxPoint x="1490" y="415" as="targetPoint" />
            <mxPoint as="offset" />
          </mxGeometry>
        </mxCell>
        <mxCell id="7atxFKoaZtmq4Zg8RzaN-16" value="Extends" style="endArrow=block;endSize=16;endFill=0;html=1;rounded=0;entryX=0.608;entryY=-0.035;entryDx=0;entryDy=0;exitX=0;exitY=0.5;exitDx=0;exitDy=0;entryPerimeter=0;" edge="1" parent="1" source="7atxFKoaZtmq4Zg8RzaN-13" target="7atxFKoaZtmq4Zg8RzaN-1">
          <mxGeometry width="160" relative="1" as="geometry">
            <mxPoint x="1050" y="-155" as="sourcePoint" />
            <mxPoint x="840" y="-100" as="targetPoint" />
          </mxGeometry>
        </mxCell>
      </root>
    </mxGraphModel>
  </diagram>
</mxfile>
